<?xml version="1.0" standalone="no"?>
<!DOCTYPE svg PUBLIC "-//W3C//DTD SVG 1.1//EN" "http://www.w3.org/Graphics/SVG/1.1/DTD/svg11.dtd" >
<svg xmlns="http://www.w3.org/2000/svg" xmlns:xlink="http://www.w3.org/1999/xlink" version="1.1">
<metadata>
Created by FontForge 20190801 at Thu Dec  8 02:24:10 2011
 By Jimmy Wärting
Copyright (c) 2011, Dario Manuel Muhafara (http://www.tipo.net.ar), with Reserved Font Name "Galdeano".
</metadata>
<defs>
<font id="Galdeano-Regular" horiz-adv-x="516" >
  <font-face 
    font-family="Galdeano"
    font-weight="400"
    font-stretch="normal"
    units-per-em="1000"
    panose-1="2 0 5 6 7 0 0 2 0 4"
    ascent="800"
    descent="-200"
    x-height="442"
    cap-height="605"
    bbox="-60 -230 1122 820"
    underline-thickness="50"
    underline-position="-100"
    unicode-range="U+001E-FB02"
  />
<missing-glyph horiz-adv-x="250" 
 />
    <glyph glyph-name=".notdef" horiz-adv-x="250" 
 />
    <glyph glyph-name=".null" horiz-adv-x="0" 
 />
    <glyph glyph-name="nonmarkingreturn" horiz-adv-x="333" 
 />
    <glyph glyph-name="RS" horiz-adv-x="220" 
 />
    <glyph glyph-name="space" unicode=" " horiz-adv-x="210" 
 />
    <glyph glyph-name="exclam" unicode="!" horiz-adv-x="260" 
d="M98 167l-21 456l108 8l-18 -457zM60 54q29 41 70 70q43 -30 70 -70q-29 -43 -70 -70q-41 27 -70 70z" />
    <glyph glyph-name="quotedbl" unicode="&#x22;" horiz-adv-x="346" 
d="M207 371l-15 253l104 8l-46 -258zM65 371l-15 253l104 8l-46 -258z" />
    <glyph glyph-name="numbersign" unicode="#" 
d="M330 0h-67l22 111h-105l-22 -111h-67l22 111h-96l15 69h95l20 101h-95l14 69h94l26 127h67l-26 -127h105l26 127h67l-26 -127h97l-14 -69h-96l-20 -101h96l-15 -69h-95zM214 281l-20 -101h105l20 101h-105z" />
    <glyph glyph-name="dollar" unicode="$" 
d="M82 14l30 93q64 -43 108 -53l14 182q-81 36 -113.5 72t-32.5 92.5t46 97t124 47.5l7 83h49l-7 -81q59 -5 104 -25l-26 -89q-46 31 -83 43l-13 -169q83 -37 114 -70t31 -91.5t-47.5 -104t-122.5 -54.5l-7 -86h-49l6 84q-65 3 -132 29zM361 109q0 63 -79 105l-13 -165
q57 0 90 33q2 22 2 27zM162 457q0 -81 80 -127l12 154q-41 0 -92 -27z" />
    <glyph glyph-name="percent" unicode="%" horiz-adv-x="848" 
d="M539 29.5q-37 44.5 -37 120.5t38 121t102 45t101.5 -44.5t37.5 -120.5t-38 -121t-102.5 -45t-101.5 44.5zM104 260.5q-37 44.5 -37 120.5t38 121t102 45t101.5 -44.5t37.5 -120.5t-38 -121t-102.5 -45t-101.5 44.5zM309 -26l-60 24l290 560l60 -24zM137 379
q0 -53 17.5 -82t49.5 -29q72 0 72 113.5t-68 113.5q-71 0 -71 -116zM572 148q0 -53 17.5 -82t49.5 -29q72 0 72 113.5t-68 113.5q-71 0 -71 -116z" />
    <glyph glyph-name="ampersand" unicode="&#x26;" horiz-adv-x="582" 
d="M398 316l95 4q0 -127 -42 -208l39 -38l87 -61v-10l-121 -25l-57 66q-64 -59 -162 -59t-151.5 40.5t-53.5 122.5q0 53 28 88.5t78 66.5q-49 53 -61.5 85t-12.5 90.5t50 100t123.5 41.5t115.5 -35.5t42 -98t-36 -102.5t-102 -81l145 -143q7 35 7 60zM360 84l-176 172
q-65 -47 -65 -93q0 -117 126 -117q74 0 115 38zM288 405q26 30 26 75q0 84 -81 84q-30 0 -62 -9q-24 -30 -24 -72t16.5 -72.5t49.5 -64.5q49 29 75 59z" />
    <glyph glyph-name="quotesingle" unicode="'" horiz-adv-x="204" 
d="M65 372l-15 253l104 8l-46 -258z" />
    <glyph glyph-name="parenleft" unicode="(" horiz-adv-x="264" 
d="M289 -186l-42 -44q-84 82 -130.5 205t-46.5 262.5t46.5 260t130.5 197.5l42 -44q-60 -60 -94.5 -172t-34.5 -248t34.5 -247.5t94.5 -169.5z" />
    <glyph glyph-name="parenright" unicode=")" horiz-adv-x="264" 
d="M-25 -186q60 58 94.5 169.5t34.5 247.5t-34.5 248t-94.5 172l42 44q84 -77 130.5 -197.5t46.5 -260t-46.5 -262.5t-130.5 -205z" />
    <glyph glyph-name="asterisk" unicode="*" horiz-adv-x="453" 
d="M193 399l28 -24l-95 -145l-64 55zM233 375l28 24l131 -114l-64 -55zM245 451h-36l-24 162h84zM203 442l-12 -34l-161 39l31 77zM262 408l-12 34l142 82l31 -77z" />
    <glyph glyph-name="plus" unicode="+" 
d="M81 196v69h142v142h69v-142h143v-69h-143v-143h-69v143h-142z" />
    <glyph glyph-name="comma" unicode="," horiz-adv-x="226" 
d="M35 54q29 41 70 70q45 -31 71 -70q-23 -99 -98 -208l-34 24q30 65 42 128q-29 22 -51 56z" />
    <glyph glyph-name="hyphen" unicode="-" horiz-adv-x="316" 
d="M40 205v70l236 12v-70z" />
    <glyph glyph-name="period" unicode="." horiz-adv-x="220" 
d="M40 54q29 41 70 70q43 -30 70 -70q-29 -43 -70 -70q-41 27 -70 70z" />
    <glyph glyph-name="slash" unicode="/" horiz-adv-x="309" 
d="M112 -40h-72l187 700h72z" />
    <glyph glyph-name="zero" unicode="0" 
d="M91 62.5q-57 77.5 -57 201t58.5 203.5t167 80t165.5 -78t57 -201t-59 -203t-167 -80t-165 77.5zM153.5 420.5q-36.5 -60.5 -36.5 -156.5t35 -154.5t104.5 -58.5t106 60t36.5 157t-35 155t-104.5 58t-106 -60.5z" />
    <glyph glyph-name="one" unicode="1" 
d="M116 428l-9 43l199 76h21v-487l106 8l3 -68h-312l2 44l113 8l11 146v254z" />
    <glyph glyph-name="two" unicode="2" 
d="M79 0l-11 37q175 179 223 257q31 50 31 95t-25 69t-76.5 24t-113.5 -29l-22 59q72 35 157 35t129.5 -39t44.5 -106.5t-44.5 -128.5t-203.5 -203h162l121 16l-8 -86h-364z" />
    <glyph glyph-name="three" unicode="3" 
d="M71 -126l-4 58q122 8 189.5 54t67.5 120q0 59 -41 85.5t-140 31.5l-5 56q174 26 174 123q0 80 -108 80l-112 -43l-28 77q67 31 153.5 31t134.5 -34t48 -90t-37 -97.5t-106 -65.5q72 -5 115.5 -49.5t43.5 -112.5q0 -95 -97.5 -158.5t-247.5 -65.5z" />
    <glyph glyph-name="four" unicode="4" 
d="M39 93l-7 46l308 408h39v-390l105 14l-7 -78h-98v-200l-96 -12l16 179v33h-260zM115 155h184v246z" />
    <glyph glyph-name="five" unicode="5" 
d="M103 256l11 286h164l121 16l-8 -83h-212l-6 -164h16q111 0 173.5 -47.5t62.5 -132.5q0 -110 -92.5 -176t-252.5 -71l-4 59q125 9 191 55t66 120.5t-40 107.5t-124 33q-33 0 -66 -3z" />
    <glyph glyph-name="six" unicode="6" 
d="M408 47.5q-57 -62.5 -150.5 -62.5t-149.5 71t-56 199q0 183 94 286t272 116l4 -59q-149 -16 -214.5 -92t-65.5 -235q0 -117 30 -169t98 -52q45 0 81 22q24 34 24 108.5t-30.5 107t-94.5 32.5q-18 0 -53 -5l-5 36l107 27q72 0 119 -49t47 -134t-57 -147.5z" />
    <glyph glyph-name="seven" unicode="7" 
d="M66 448l10 99h374l5 -31l-276 -641l-80 35l94 175l159 379h-165z" />
    <glyph glyph-name="eight" unicode="8" 
d="M164 573q-11 -36 -11 -71q0 -72 103 -125q55 31 80 60.5t25 67t-32 63t-82.5 25.5t-82.5 -20zM258 305q-120 -55 -120 -143q0 -47 34.5 -80.5t88.5 -33.5t91 23q22 44 22 89t-26.5 78t-89.5 67zM107.5 32.5q-56.5 49.5 -56.5 116t30.5 107t109.5 85.5q-64 35 -91.5 73
t-27.5 90q0 67 54.5 110t133 43t130.5 -44t52 -105q0 -93 -115 -166q137 -69 137 -176q0 -79 -61 -131t-150 -52t-145.5 49.5z" />
    <glyph glyph-name="nine" unicode="9" 
d="M108 484.5q57 62.5 150.5 62.5t149.5 -71.5t56 -199.5q0 -183 -94 -286.5t-272 -115.5l-4 59q149 15 214.5 91.5t65.5 235.5q0 117 -30.5 169.5t-97.5 52.5q-45 0 -81 -22q-24 -36 -24 -110t30.5 -106.5t94.5 -32.5q16 0 53 5l5 -36l-107 -27q-73 0 -119.5 49
t-46.5 134.5t57 148z" />
    <glyph glyph-name="colon" unicode=":" horiz-adv-x="220" 
d="M40 336q29 41 70 70q43 -30 70 -70q-29 -43 -70 -70q-41 27 -70 70zM40 54q29 41 70 70q43 -30 70 -70q-29 -43 -70 -70q-41 27 -70 70z" />
    <glyph glyph-name="semicolon" unicode=";" horiz-adv-x="226" 
d="M35 54q29 41 70 70q45 -31 71 -70q-23 -99 -98 -208l-34 24q30 65 42 128q-29 22 -51 56zM35 336q29 41 70 70q43 -30 70 -70q-29 -43 -70 -70q-41 27 -70 70z" />
    <glyph glyph-name="less" unicode="&#x3c;" 
d="M155 230l282 -118l-9 -65l-349 155v57l349 155l9 -65z" />
    <glyph glyph-name="equal" unicode="=" 
d="M81 101v69h354v-69h-354zM81 291v69h354v-69h-354z" />
    <glyph glyph-name="greater" unicode="&#x3e;" 
d="M67 112l282 118l-282 119l9 65l349 -155v-57l-349 -155z" />
    <glyph glyph-name="question" unicode="?" horiz-adv-x="367" 
d="M325 512q0 -32 -23.5 -73.5t-51.5 -72.5q-76 -84 -79 -96q14 -20 70 -49l-21 -50q-52 11 -92.5 35t-40.5 45.5t23.5 50t51.5 55t51.5 65t23.5 68t-11.5 45t-33.5 22.5q-34 11 -75 13l-83 -32l-24 78q83 15 146 15q169 0 169 -119zM96 54q28 43 70 70q42 -27 70 -70
q-28 -43 -70 -70q-42 27 -70 70z" />
    <glyph glyph-name="at" unicode="@" horiz-adv-x="786" 
d="M323 150q-3 -18 -3 -29q0 -57 71 -57q43 0 87 23v103q-91 -12 -155 -40zM405 368l-35 -2l-78 -69l-42 70q72 57 160 57q146 0 146 -147v-161l11 -59q51 4 80 55t29 139q0 118 -72.5 193t-185.5 75q-132 0 -219.5 -88.5t-87.5 -226.5t89.5 -228t232.5 -90q83 0 176 38
l20 -44q-97 -53 -211 -53q-168 0 -275.5 105.5t-107.5 270t108 272.5t264.5 108t250 -91.5t93.5 -235.5q0 -103 -57 -176.5t-137 -73.5q-33 0 -48.5 9.5t-26.5 37.5q-56 -47 -116.5 -47t-93 26.5t-32.5 70.5q0 62 45 88.5t193 51.5q0 71 -16 98t-57 27z" />
    <glyph glyph-name="A" unicode="A" horiz-adv-x="551" 
d="M10 -1l213 535l19 69l79 6l220 -609h-117l-30 151h-247l-36 -152h-101zM276 507l-101 -286h196z" />
    <glyph glyph-name="B" unicode="B" horiz-adv-x="547" 
d="M84 0l14 198v269l-18 132l9 1q109 20 175 20q191 0 191 -158q0 -94 -72 -140q114 -36 114 -153q0 -84 -69.5 -134t-187.5 -50q-88 0 -156 15zM193 52q36 -6 79.5 -6t97.5 16q35 40 35 100t-35 88t-110 28h-78v-81l9 -131zM182 407v-71h46q135 1 135 116q0 108 -113 108
q-26 0 -58 -5z" />
    <glyph glyph-name="C" unicode="C" horiz-adv-x="593" 
d="M132.5 67q-77.5 82 -77.5 228t89 235.5t237 89.5q76 0 157 -30l-32 -105l-122 66q-128 0 -178 -54t-50 -181.5t52.5 -196t136.5 -68.5t166 68l32 -87q-90 -47 -197 -47q-136 0 -213.5 82z" />
    <glyph glyph-name="D" unicode="D" horiz-adv-x="650" 
d="M84 0l14 198v269l-18 132q105 21 199 21q161 0 238.5 -73.5t77.5 -226.5t-95.5 -244t-256.5 -91q-79 0 -159 15zM191 64q40 -13 92 -13q83 0 158 35q24 34 38.5 95t14.5 126q0 129 -52.5 188t-167.5 59q-40 0 -82 -8l-10 -139v-210z" />
    <glyph glyph-name="E" unicode="E" horiz-adv-x="478" 
d="M178 407v-63h96l95 10l-8 -75h-183v-82l9 -127h132l109 12l-10 -88l-109 6h-117l-112 -6l14 204v210l-14 197h339l-9 -82l-112 12h-111z" />
    <glyph glyph-name="F" unicode="F" horiz-adv-x="439" 
d="M187 535l-9 -128v-75h96l95 10l-8 -75h-183v-70l14 -197h-112l14 198v210l-14 197h339l-9 -82l-112 12h-111z" />
    <glyph glyph-name="G" unicode="G" horiz-adv-x="630" 
d="M130 66.5q-75 81.5 -75 227.5t89 235.5t237 89.5q81 0 167 -30l-32 -105l-133 66q-127 0 -177 -54t-50 -181t50 -195.5t135 -68.5q70 0 132 37l-4 115l-16 61l112 6l-13 -237q-83 -45 -187 -47q-7 -1 -27 -1q-133 0 -208 81.5z" />
    <glyph glyph-name="H" unicode="H" horiz-adv-x="664" 
d="M80 0l14 198v210l-14 197h112l-14 -198v-54h308v55l-14 197h112l-14 -198v-210l14 -197h-112l14 198v85h-308v-86l14 -197h-112z" />
    <glyph glyph-name="I" unicode="I" horiz-adv-x="282" 
d="M85 0l14 198v210l-14 197h112l-14 -198v-210l14 -197h-112z" />
    <glyph glyph-name="J" unicode="J" horiz-adv-x="272" 
d="M99 12q5 142 5 326v70l-14 197h112l-14 -198v-301q0 -99 -37 -156.5t-143 -124.5l-33 87q42 19 77.5 48t46.5 52z" />
    <glyph glyph-name="K" unicode="K" horiz-adv-x="555" 
d="M375 96l-164 211v10l148 177l49 111h122v-8l-231 -264l176 -231l85 -93v-10l-135 -7zM80 0l14 198v210l-14 197h112l-14 -198v-210l14 -197h-112z" />
    <glyph glyph-name="L" unicode="L" horiz-adv-x="400" 
d="M80 -6l14 204v210l-14 197h112l-14 -198v-210l9 -127h107l109 12l-10 -88l-109 6h-95z" />
    <glyph glyph-name="M" unicode="M" horiz-adv-x="742" 
d="M572 0l4 198l-15 254l-169 -382l-28 -3l-197 385l-11 -255l7 -197h-99l24 198l11 210l-7 194l104 4l18 -66l168 -347l151 362l11 48l106 4l-7 -200l11 -210l24 -197h-106z" />
    <glyph glyph-name="N" unicode="N" horiz-adv-x="656" 
d="M500 -3l-28 65l-306 384v-249l14 -197h-100l14 198v210l-14 195l94 4l28 -67l288 -362v230l-14 197h100l-14 -198v-186l14 -221z" />
    <glyph glyph-name="O" unicode="O" horiz-adv-x="688" 
d="M129 67.5q-74 82.5 -74 229.5t81 235t215 88t208 -82t74 -229t-81.5 -235.5t-215 -88.5t-207.5 82.5zM156 297q0 -117 53 -181.5t149 -64.5q57 0 111 23q26 26 44.5 93.5t18.5 138.5q0 121 -52.5 184.5t-152.5 63.5q-57 0 -108 -23q-26 -25 -44.5 -94t-18.5 -140z" />
    <glyph glyph-name="P" unicode="P" horiz-adv-x="521" 
d="M218 250l-3 39q87 0 125 30t38 100q0 141 -132 141q-21 0 -54 -5l-10 -148v-210l14 -197h-112l14 198v269l-18 132q124 21 187 21q209 0 209 -191q0 -78 -41.5 -125.5t-118.5 -58.5z" />
    <glyph glyph-name="Q" unicode="Q" horiz-adv-x="688" 
d="M156 297q0 -117 53 -181.5t149 -64.5q57 0 111 23q26 26 44.5 93.5t18.5 138.5q0 121 -52.5 184.5t-152.5 63.5q-57 0 -108 -23q-26 -25 -44.5 -94t-18.5 -140zM129 67.5q-74 82.5 -74 229.5t81 235t215 88t208 -82t74 -227q0 -92 -32.5 -163.5t-93.5 -112.5l123 -108
l54 -35l1 -20l-115 -20l-28 46l-93 107q-55 -20 -116 -20q-130 0 -204 82.5z" />
    <glyph glyph-name="R" unicode="R" horiz-adv-x="544" 
d="M217 272v25q83 0 118 29t35 97q0 137 -127 137q-18 0 -51 -5l-10 -148v-210l14 -197h-112l14 198v269l-18 132q118 21 185 21q203 0 203 -187q0 -71 -35 -116.5t-101 -60.5l117 -154l85 -93v-10l-135 -7l-50 104z" />
    <glyph glyph-name="S" unicode="S" horiz-adv-x="502" 
d="M55 17l34 101q58 -38 94.5 -52t75.5 -14q66 0 104 40q3 15 3 31q0 47 -31.5 79t-76 51t-89.5 40t-76.5 60t-31.5 97q0 75 62.5 121t164.5 46q71 0 133 -28l-29 -94q-84 56 -138.5 56t-109.5 -34q0 -59 31 -96.5t76 -57.5t89.5 -40t75.5 -57.5t31 -96.5q0 -80 -64.5 -132
t-155.5 -52t-172 32z" />
    <glyph glyph-name="T" unicode="T" horiz-adv-x="480" 
d="M20 529l5 76h345l109 12l-10 -88l-111 6h-65l-9 -128v-210l14 -197h-112l14 198v210l-10 127h-60z" />
    <glyph glyph-name="U" unicode="U" horiz-adv-x="631" 
d="M84 263v145l-14 197h121l-13 -198v-107q0 -129 32.5 -184.5t110 -55.5t113 49t35.5 159v139l-13 198h105l-14 -197v-133q0 -290 -243 -290q-220 0 -220 278z" />
    <glyph glyph-name="V" unicode="V" horiz-adv-x="548" 
d="M233 -5l-213 607l116 9l16 -127l122 -384l131 380l12 125h121l-229 -604z" />
    <glyph glyph-name="W" unicode="W" horiz-adv-x="843" 
d="M233 -5l-203 607l114 9l16 -127l109 -372l113 374l-37 116l114 9l16 -127l99 -371l122 367l12 125h121l-225 -604l-71 -6l-112 360l-127 -354z" />
    <glyph glyph-name="X" unicode="X" horiz-adv-x="544" 
d="M25 0v8l202 302l-94 158l-100 125v9l137 10l54 -123l59 -101l64 106l46 111h122v-8l-192 -275l111 -186l100 -125v-9l-137 -10l-52 120l-80 133l-72 -134l-46 -111h-122z" />
    <glyph glyph-name="Y" unicode="Y" horiz-adv-x="495" 
d="M203 0l14 198v44l-202 361l132 9l24 -98l91 -184l86 175l24 100h118l-189 -343v-65l14 -197h-112z" />
    <glyph glyph-name="Z" unicode="Z" horiz-adv-x="496" 
d="M31 -8l-11 46l329 498h-187l-122 -36l-12 105h352l74 9l11 -47l-327 -497h186l129 40l12 -110h-366z" />
    <glyph glyph-name="bracketleft" unicode="[" horiz-adv-x="233" 
d="M223 685l-9 -82l-71 10v-739l71 10l9 -82q-97 0 -125 19t-28 83v679q0 65 28 83.5t125 18.5z" />
    <glyph glyph-name="backslash" unicode="\" horiz-adv-x="309" 
d="M269 -40h-72l-187 700h72z" />
    <glyph glyph-name="bracketright" unicode="]" horiz-adv-x="233" 
d="M19 603l-9 82q97 0 125 -18.5t28 -83.5v-679q0 -64 -28 -83t-125 -19l9 82l71 -10v739z" />
    <glyph glyph-name="asciicircum" unicode="^" horiz-adv-x="561" 
d="M80 278l172 327h57l172 -327h-80l-119 237l-122 -237h-80z" />
    <glyph glyph-name="underscore" unicode="_" horiz-adv-x="380" 
d="M15 -95v69h350v-69h-350z" />
    <glyph glyph-name="grave" unicode="`" horiz-adv-x="430" 
d="M308 534l-23 -32l-174 103l59 64z" />
    <glyph glyph-name="a" unicode="a" horiz-adv-x="454" 
d="M74.5 19.5q-34.5 34.5 -34.5 94.5t49 89t206 58q0 76 -17 105t-61 29q-24 0 -38 -2l-84 -74l-45 75q77 61 172 61q157 0 157 -158v-185l18 -113l-93 -14l-4 50q-62 -50 -126.5 -50t-99 34.5zM125 118q0 -33 20.5 -52t64 -19t85.5 31v126q-96 -14 -163 -43q-7 -27 -7 -43z
" />
    <glyph glyph-name="b" unicode="b" horiz-adv-x="492" 
d="M66 7l14 198v362l-15 103l111 10l-14 -198v-75q58 47 128 47t111 -56.5t41 -152.5q0 -119 -63.5 -189.5t-170.5 -70.5q-73 0 -142 22zM162 57q22 -11 66 -11t85 10q37 45 37 159q0 170 -89 170q-48 0 -99 -24v-304z" />
    <glyph glyph-name="c" unicode="c" horiz-adv-x="428" 
d="M105 46.5q-55 61.5 -55 166.5t62 173t163 68q71 0 117 -23l-27 -86l-124 49q-53 -6 -76 -47t-23 -125.5t28.5 -130t83 -45.5t117.5 51l27 -74q-71 -38 -154.5 -38t-138.5 61.5z" />
    <glyph glyph-name="d" unicode="d" horiz-adv-x="494" 
d="M335 35q-64 -50 -133.5 -50t-110.5 56t-41 152q0 118 62.5 189.5t165.5 71.5q29 0 54 -4v115l-15 105l108 10l-11 -198v-370l18 -113l-93 -14zM231 54q46 0 99 24v304q-33 11 -70 11t-80 -10q-38 -51 -38 -158q0 -171 89 -171z" />
    <glyph glyph-name="e" unicode="e" horiz-adv-x="467" 
d="M107 45q-57 60 -57 165.5t58 174.5t141.5 69t125.5 -41t42 -115q0 -27 -5 -65l-270 -9q0 -85 29.5 -131.5t83.5 -46.5q71 0 131 51l27 -74q-68 -38 -158.5 -38t-147.5 60zM144 276l182 8q-1 61 -20 85t-62 24t-67 -9q-25 -27 -33 -108z" />
    <glyph glyph-name="f" unicode="f" horiz-adv-x="312" 
d="M13 371l-3 39l92 29v18q0 107 50 169t136 62q44 0 84 -15l-24 -78l-86 33q-43 -8 -60.5 -42.5t-17.5 -111.5v-35h124l-3 -53l-121 -9v-180l11 -197h-107l14 198v173h-89z" />
    <glyph glyph-name="g" unicode="g" horiz-adv-x="500" 
d="M78 80q0 17 9 32.5t40 53.5q-68 37 -68 127q0 75 48.5 118t122 43t111.5 -23l129 24l-10 -74l-71 4q19 -34 19 -79q0 -75 -48.5 -118t-133.5 -43q-31 0 -58 6l-26 -54q19 -14 45.5 -20.5t93.5 -13.5l77 -9q92 -12 92 -98q0 -77 -65.5 -126t-169.5 -49q-79 0 -124.5 31
t-45.5 85q0 71 79 119q-46 24 -46 64zM126 -80q0 -83 122.5 -83t122.5 87q0 24 -6 41l-206 37q-33 -31 -33 -82zM146 301q0 -100 88.5 -100t88.5 100q0 51 -22.5 74t-63.5 23t-70 -9q-21 -25 -21 -88z" />
    <glyph glyph-name="h" unicode="h" horiz-adv-x="506" 
d="M66 0l14 198v369l-15 103l108 10l-11 -196v-83q81 53 163 53q105 0 105 -138v-316l-98 -5l14 215v107q0 37 -12 52.5t-40 15.5q-61 0 -132 -37v-151l11 -197h-107z" />
    <glyph glyph-name="i" unicode="i" horiz-adv-x="229" 
d="M58 0l14 198v140l-15 103l103 10l-11 -196v-58l11 -197h-102zM44 603q31 43 67 67q39 -29 67 -67q-29 -42 -67 -67q-39 25 -67 67z" />
    <glyph glyph-name="j" unicode="j" horiz-adv-x="256" 
d="M74 -56q15 104 15 254v140l-15 103l103 10l-11 -196v-170q0 -109 -38.5 -176.5t-134.5 -127.5l-33 87q73 32 114 76zM60 603q27 40 67 67q41 -28 67 -67q-25 -38 -67 -67q-38 25 -67 67z" />
    <glyph glyph-name="k" unicode="k" horiz-adv-x="456" 
d="M66 0l14 198v369l-15 103l108 10l-11 -196v-287l11 -197h-107zM180 246v7l99 107l43 79h105v-8l-157 -174l113 -159l83 -86v-10l-128 -5l-43 85z" />
    <glyph glyph-name="l" unicode="l" horiz-adv-x="242" 
d="M66 0l14 198v369l-15 103l108 10l-11 -196v-287l11 -197h-107z" />
    <glyph glyph-name="m" unicode="m" horiz-adv-x="757" 
d="M421 348l2 -32v-316l-98 -5l14 217v105q0 37 -11.5 52.5t-38.5 15.5q-61 0 -127 -37v-348h-96l14 198v141l-15 103l97 10v-51q80 53 159 53q64 0 89 -59q88 59 170 59q50 0 76 -35.5t26 -102.5v-316l-98 -5l14 217v105q0 37 -11.5 52.5t-38.5 15.5q-61 0 -127 -37z" />
    <glyph glyph-name="n" unicode="n" horiz-adv-x="505" 
d="M66 0l14 198v141l-15 103l97 10v-51q81 53 163 53q51 0 78 -35.5t27 -102.5v-316l-98 -5l14 215v107q0 37 -12 52.5t-40 15.5q-61 0 -132 -37v-348h-96z" />
    <glyph glyph-name="o" unicode="o" horiz-adv-x="500" 
d="M101.5 44q-51.5 59 -51.5 168.5t55 175.5t148.5 66t145 -58.5t51.5 -168t-55 -176t-148.5 -66.5t-145 59zM261 46q30 0 64 10q33 47 33 148.5t-29.5 145t-91.5 43.5q-23 0 -62 -10q-33 -46 -33 -148t28.5 -145.5t90.5 -43.5z" />
    <glyph glyph-name="p" unicode="p" horiz-adv-x="497" 
d="M83 -21v348l-18 113l93 14l4 -50q64 50 133.5 50t110.5 -56t41 -152q0 -118 -62.5 -189.5t-165.5 -71.5q-31 0 -52 4l10 -198l-105 -10zM167 57q31 -11 72 -11t78 10q38 50 38 158q0 171 -89 171q-48 0 -99 -24v-304z" />
    <glyph glyph-name="q" unicode="q" horiz-adv-x="495" 
d="M231 54q46 0 99 24v304q-27 11 -69 11t-82 -10q-37 -45 -37 -159q0 -170 89 -170zM330 32q-60 -47 -129 -47t-110 56.5t-41 152.5q0 119 63.5 189.5t170.5 70.5q66 0 146 -14l-18 -113v-433l15 -103l-111 -10l14 198v53z" />
    <glyph glyph-name="r" unicode="r" horiz-adv-x="334" 
d="M66 0l14 198v140l-15 103l101 10l-4 -75q35 42 62 60t56.5 18t58.5 -13l-27 -86l-90 27q-37 -33 -65 -84v-101l11 -197h-102z" />
    <glyph glyph-name="s" unicode="s" horiz-adv-x="390" 
d="M40 9l27 87q71 -50 119 -50t81 23q2 6 2 30.5t-18.5 42t-84.5 51.5t-89.5 62.5t-23.5 68.5q0 56 49.5 93t116 37t112.5 -20l-24 -78q-63 37 -105.5 37t-76.5 -20q0 -35 18.5 -56t81.5 -53.5t91.5 -63.5t28.5 -71q0 -61 -52.5 -102.5t-123 -41.5t-129.5 24z" />
    <glyph glyph-name="t" unicode="t" horiz-adv-x="348" 
d="M28 386l-3 39l90 29l33 114h43l6 -114h126l-3 -53l-126 -9v-249q0 -53 10.5 -73.5t42 -20.5t67.5 10l-9 -57q-34 -17 -89 -17t-81.5 30t-26.5 103q0 25 6 268h-86z" />
    <glyph glyph-name="u" unicode="u" horiz-adv-x="502" 
d="M75 123v314l98 5l-14 -215v-105q0 -37 12 -52.5t40 -15.5q60 0 132 37l-12 346l96 5v-341l15 -103l-99 -10v50q-81 -53 -163 -53q-51 0 -78 35.5t-27 102.5z" />
    <glyph glyph-name="v" unicode="v" horiz-adv-x="450" 
d="M174 -5l-154 444l106 7l12 -91l82 -269l95 254l11 99h104l-178 -438z" />
    <glyph glyph-name="w" unicode="w" horiz-adv-x="682" 
d="M171 -5l-151 444l106 7l12 -91l81 -277l89 261l-31 101l103 6l10 -91l68 -265l89 250l11 99h104l-174 -438l-75 -6l-75 244l-87 -238z" />
    <glyph glyph-name="x" unicode="x" horiz-adv-x="421" 
d="M261 80l-57 88l-51 -88l-27 -80h-111v7l154 216l-74 118l-73 90v10l115 5l41 -89l41 -64l44 66l27 80h111v-7l-147 -194l89 -138l73 -90v-10l-116 -5z" />
    <glyph glyph-name="y" unicode="y" horiz-adv-x="426" 
d="M15 -111l97 9q39 54 67 112l-169 429l107 7l12 -94l90 -248q45 116 87 236l11 99h104l-149 -380q-53 -136 -104.5 -194t-124.5 -65z" />
    <glyph glyph-name="z" unicode="z" horiz-adv-x="411" 
d="M37 -6l-7 34l225 346h-93l-104 -23l-7 93l249 -10l70 11l7 -34l-225 -346h123l102 22l9 -92l-281 10z" />
    <glyph glyph-name="braceleft" unicode="{" horiz-adv-x="286" 
d="M118 -96l11 237q0 18 -27.5 38.5t-61.5 28.5l6 53q30 7 56.5 27.5t26.5 37.5l-11 257q0 65 28.5 83.5t129.5 18.5l-9 -82l-71 10v-289q0 -29 -15.5 -48t-59.5 -43q42 -21 58.5 -40.5t16.5 -49.5v-269l71 10l9 -82q-101 0 -129.5 18.5t-28.5 83.5z" />
    <glyph glyph-name="bar" unicode="|" horiz-adv-x="382" 
d="M150 -145v826l82 8v-834h-82z" />
    <glyph glyph-name="braceright" unicode="}" horiz-adv-x="286" 
d="M168 583l-11 -237q0 -18 27.5 -38.5t61.5 -28.5l-6 -53q-30 -7 -56.5 -27.5t-26.5 -37.5l11 -257q0 -65 -28.5 -83.5t-129.5 -18.5l9 82l71 -10v289q0 29 15.5 48t59.5 43q-42 21 -58.5 40.5t-16.5 49.5v269l-71 -10l-9 82q101 0 129.5 -18.5t28.5 -83.5z" />
    <glyph glyph-name="asciitilde" unicode="~" horiz-adv-x="548" 
d="M185 263q-41 0 -83 -42l-32 49q49 62 133 62q23 0 76.5 -17.5t89 -17.5t77.5 42l32 -49q-50 -62 -133 -62q-28 0 -82 17.5t-78 17.5z" />
    <glyph glyph-name="exclamdown" unicode="&#xa1;" horiz-adv-x="260" 
d="M162 271l21 -456l-108 -8l18 457zM200 384q-29 -41 -70 -70q-43 30 -70 70q29 43 70 70q41 -27 70 -70z" />
    <glyph glyph-name="cent" unicode="&#xa2;" 
d="M185 256q0 -125 61 -161l26 333q-46 -10 -66.5 -50.5t-20.5 -121.5zM132.5 103.5q-39.5 58.5 -39.5 148t50 155.5t133 80l6 70h52l-5 -66q70 -3 115 -23l-24 -77l-96 35l-27 -343q60 0 129 41l24 -64q-73 -38 -152 -38h-6l-5 -69h-52l6 75q-69 17 -108.5 75.5z" />
    <glyph glyph-name="sterling" unicode="&#xa3;" 
d="M100 259l9 61h59q-3 24 -3 49q0 82 49 130t134 48q35 0 79 -14l-23 -73l-80 31q-46 -6 -64.5 -29.5t-18.5 -76.5q0 -25 5 -65h34l89 9l-8 -70h-103q8 -49 8 -70q0 -68 -79 -124h153l102 11l-9 -82l-102 6h-117l-102 -6v71q77 37 77 102q0 22 -11 92h-78z" />
    <glyph glyph-name="yen" unicode="&#xa5;" 
d="M67 234v48h121l-152 264l120 8l21 -89l90 -166l83 159l22 89h108l-152 -265h130v-48h-156v-55h156v-47h-153l9 -132h-101l9 132h-155v47h158v40l-9 15h-149z" />
    <glyph glyph-name="brokenbar" unicode="&#xa6;" horiz-adv-x="382" 
d="M150 -145v369h82v-369h-82zM150 320v361l82 8v-369h-82z" />
    <glyph glyph-name="section" unicode="&#xa7;" horiz-adv-x="436" 
d="M380 49q0 -73 -58 -123.5t-134 -50.5t-143 26l29 89q80 -55 133.5 -55t93.5 29q3 15 3 48.5t-23 57.5t-96.5 65t-99.5 74t-26 79q0 63 49 110q-49 42 -49 105.5t55 107.5t126.5 44t124.5 -22l-27 -79q-72 41 -120 41t-87 -25q0 -48 21 -77.5t93 -71.5t103.5 -76.5
t31.5 -80.5q0 -66 -50 -113q50 -44 50 -102zM251 202l43 -26q10 23 10 42t-2.5 31t-10.5 23.5t-14.5 19t-23 18t-28.5 17.5q-36 21 -81 46q-10 -23 -10 -51t26 -55.5t91 -64.5z" />
    <glyph glyph-name="dieresis" unicode="&#xa8;" horiz-adv-x="430" 
d="M25 586q26 38 61 61q31 -23 58 -61q-27 -39 -58 -61q-37 24 -61 61zM206 586q27 40 58 61q36 -25 61 -61q-23 -35 -61 -61q-33 22 -58 61z" />
    <glyph glyph-name="copyright" unicode="&#xa9;" horiz-adv-x="670" 
d="M221.5 301q-45.5 46 -45.5 125.5t47 130.5t122 51q55 0 114 -26l-26 -64l-63 44q-6 1 -23 1q-56 0 -81 -30.5t-25 -96t30 -102t76 -36.5t93 39l20 -55q-56 -27 -114 -27q-79 0 -124.5 46zM620 427q0 -285 -285 -285t-285 285t285 285t285 -285zM556 427q-4 124 -56 177.5
t-165.5 53.5t-164.5 -54t-56 -177q5 -123 56 -177t164.5 -54t165.5 53.5t56 177.5z" />
    <glyph glyph-name="ordfeminine" unicode="&#xaa;" horiz-adv-x="370" 
d="M184 564l-34 -1l-63 -58l-39 67q26 22 65 35t75 13q128 0 128 -123v-145l14 -88l-75 -11l-3 39q-50 -39 -102.5 -39t-81 26.5t-28.5 75.5t39.5 72t168.5 46q0 52 -14 71.5t-50 19.5zM49 143v55l267 12v-55zM115 358q0 -22 16 -35t51 -13t66 22v88q-78 -12 -127 -34
q-6 -20 -6 -28z" />
    <glyph glyph-name="guillemotleft" unicode="&#xab;" horiz-adv-x="500" 
d="M258 45l-35 -30l-193 191l3 29l190 188l35 -30l-129 -174zM465 45l-35 -30l-193 191l3 29l190 188l35 -30l-129 -174z" />
    <glyph glyph-name="logicalnot" unicode="&#xac;" 
d="M81 196v69h354v-172h-69v103h-285z" />
    <glyph glyph-name="registered" unicode="&#xae;" horiz-adv-x="670" 
d="M620 427q0 -285 -285 -285t-285 285t285 285t285 -285zM556 427q-4 124 -56 177.5t-165.5 53.5t-164.5 -54t-56 -177q5 -123 56 -177t164.5 -54t165.5 53.5t56 177.5zM225 256l8 113v152l-11 75q75 12 107 12q118 0 118 -106q0 -82 -76 -101l61 -87l48 -45v-13l-87 -4
l-29 59l-64 95v23q44 0 63 15t19 50q0 72 -63 72q-11 0 -25 -3l-4 -76v-119l7 -112h-72z" />
    <glyph glyph-name="macron" unicode="&#xaf;" horiz-adv-x="430" 
d="M348 552h-266v72h266v-72z" />
    <glyph glyph-name="degree" unicode="&#xb0;" horiz-adv-x="338" 
d="M70 382q-40 40 -40 98.5t40.5 99t98 40.5t98.5 -41t41 -98.5t-40.5 -98t-99 -40.5t-98.5 40zM110 545q-23 -25 -23 -64.5t23 -64.5t58.5 -25t58.5 25.5t23 64t-23 64t-58.5 25.5t-58.5 -25z" />
    <glyph glyph-name="plusminus" unicode="&#xb1;" 
d="M81 243v69h142v142h69v-142h143v-69h-143v-133h-69v133h-142zM79 0l4 69h354l-4 -69h-354z" />
    <glyph glyph-name="twosuperior" unicode="&#xb2;" horiz-adv-x="400" 
d="M61 191l-8 33q137 111 166 149.5t29 64t-19 39t-58.5 13.5t-88.5 -23l-20 52q56 28 124 28t103.5 -26t35.5 -68.5t-33.5 -84t-131.5 -119.5h94l94 13l-6 -71h-281z" />
    <glyph glyph-name="threesuperior" unicode="&#xb3;" horiz-adv-x="400" 
d="M71 186l4 47q179 0 179 73q0 27 -30.5 38t-107.5 11l-2 42q77 6 105 18t28 36t-17.5 31.5t-67.5 7.5l-67 -24l-22 62q59 19 124 19q123 0 123 -77q0 -59 -76 -89q38 -4 61.5 -28t23.5 -59q0 -48 -50 -81t-122 -33q-39 0 -86 6z" />
    <glyph glyph-name="acute" unicode="&#xb4;" horiz-adv-x="430" 
d="M145 502l-23 32l139 135l59 -65z" />
    <glyph glyph-name="mu" unicode="&#xb5;" horiz-adv-x="502" 
d="M75 -21v462l98 10l-14 -224v-105q0 -37 12 -52.5t40 -15.5q61 0 132 37l-12 350l96 10v-350l15 -103l-99 -10v50q-81 -53 -163 -53q-16 0 -30 3l19 -197l-105 -10z" />
    <glyph glyph-name="paragraph" unicode="&#xb6;" horiz-adv-x="500" 
d="M220 302q-91 0 -130.5 36.5t-39.5 122.5q0 159 208 159q34 0 177 -17l-18 -112v-491h-73v550q-31 5 -52 6v-556h-72v302z" />
    <glyph glyph-name="periodcentered" unicode="&#xb7;" horiz-adv-x="274" 
d="M67 219q29 41 70 70q43 -30 70 -70q-29 -43 -70 -70q-41 27 -70 70z" />
    <glyph glyph-name="cedilla" unicode="&#xb8;" horiz-adv-x="430" 
d="M177 -89l46 87l33 -9l-24 -48q82 -9 82 -73q0 -44 -30 -68t-81 -24t-87 14l31 56q29 -11 60 -11q48 0 48 33q0 26 -16 34.5t-62 8.5z" />
    <glyph glyph-name="onesuperior" unicode="&#xb9;" horiz-adv-x="400" 
d="M99 450l-8 36l141 61h16v-305l76 7l3 -58h-232l2 38l75 6l8 111v124z" />
    <glyph glyph-name="ordmasculine" unicode="&#xba;" horiz-adv-x="393" 
d="M80.5 299q-40.5 46 -40.5 132t43 137.5t116 51.5t113.5 -46t40.5 -131.5t-43 -137.5t-116 -52t-113.5 46zM205 309q24 0 48 8q25 34 25 108.5t-22.5 106.5t-69.5 32q-22 0 -46 -8q-25 -33 -25 -108t21.5 -107t68.5 -32zM55 143v55l281 12v-55z" />
    <glyph glyph-name="guillemotright" unicode="&#xbb;" horiz-adv-x="500" 
d="M35 393l35 30l193 -191l-3 -29l-190 -188l-35 30l129 174zM242 393l35 30l193 -191l-3 -29l-190 -188l-35 30l129 174z" />
    <glyph glyph-name="onequarter" unicode="&#xbc;" horiz-adv-x="848" 
d="M337 -35l-67 20l278 656l67 -20zM488 101l-6 44l161 212h54v-198l45 8l-6 -66h-39v-100h-77l9 85v15h-141zM121 519l-8 36l141 61h16v-305l76 7l3 -58h-232l2 38l75 6l8 111v124zM542 154h87v116z" />
    <glyph glyph-name="onehalf" unicode="&#xbd;" horiz-adv-x="848" 
d="M284 -35l-67 20l278 656l67 -20zM496 0l-8 33q137 111 171 156q24 31 24 57t-19 39.5t-58.5 13.5t-88.5 -23l-20 52q56 28 124 28t103.5 -26t35.5 -68.5t-33.5 -84t-131.5 -119.5h94l94 13l-6 -71h-281zM68 519l-8 36l141 61h16v-305l76 7l3 -58h-232l2 38l75 6l8 111
v124z" />
    <glyph glyph-name="threequarters" unicode="&#xbe;" horiz-adv-x="848" 
d="M344 -35l-67 20l278 656l67 -20zM495 101l-6 44l161 212h54v-198l45 8l-6 -66h-39v-100h-77l9 85v15h-141zM107 259l4 47q179 0 179 73q0 27 -30.5 38t-107.5 11l-2 42q77 6 105 18t28 36t-17.5 31.5t-67.5 7.5l-67 -24l-22 62q59 19 124 19q123 0 123 -77q0 -59 -76 -89
q38 -4 61.5 -28t23.5 -59q0 -48 -50 -81t-122 -33q-39 0 -86 6zM549 154h87v116z" />
    <glyph glyph-name="questiondown" unicode="&#xbf;" horiz-adv-x="367" 
d="M42 -51q0 32 23.5 73.5t51.5 72.5q76 84 79 96q-14 20 -70 49l21 50q52 -11 92.5 -35t40.5 -45.5t-23.5 -50t-51.5 -55t-51.5 -65t-23.5 -68t11.5 -45t32.5 -22.5q35 -11 76 -13l83 32l24 -78q-83 -15 -146 -15q-169 0 -169 119zM271 407q-28 -43 -70 -70q-42 27 -70 70
q28 43 70 70q42 -27 70 -70z" />
    <glyph glyph-name="Agrave" unicode="&#xc0;" horiz-adv-x="551" 
d="M10 -1l213 535l19 69l79 6l220 -609h-117l-30 151h-247l-36 -152h-101zM276 507l-101 -286h196zM334 685l-23 -32l-174 103l59 64z" />
    <glyph glyph-name="Aacute" unicode="&#xc1;" horiz-adv-x="551" 
d="M10 -1l213 535l19 69l79 6l220 -609h-117l-30 151h-247l-36 -152h-101zM276 507l-101 -286h196zM259 653l-23 32l139 135l59 -65z" />
    <glyph glyph-name="Acircumflex" unicode="&#xc2;" horiz-adv-x="551" 
d="M10 -1l213 535l19 69l79 6l220 -609h-117l-30 151h-247l-36 -152h-101zM276 507l-101 -286h196zM170 653l-23 32l138 130l138 -130l-23 -32l-115 76z" />
    <glyph glyph-name="Atilde" unicode="&#xc3;" horiz-adv-x="551" 
d="M10 -1l213 535l19 69l79 6l220 -609h-117l-30 151h-247l-36 -152h-101zM276 507l-101 -286h196zM409 793l22 -17q-41 -77 -70 -102q-23 0 -43 8.5t-97 51.5l-60 -55l-22 17q44 78 70 102q22 0 44 -9.5t96 -50.5z" />
    <glyph glyph-name="Adieresis" unicode="&#xc4;" horiz-adv-x="551" 
d="M10 -1l213 535l19 69l79 6l220 -609h-117l-30 151h-247l-36 -152h-101zM276 507l-101 -286h196zM312 737q27 40 58 61q36 -25 61 -61q-23 -35 -61 -61q-33 22 -58 61zM131 737q26 38 61 61q31 -23 58 -61q-27 -39 -58 -61q-37 24 -61 61z" />
    <glyph glyph-name="Aring" unicode="&#xc5;" horiz-adv-x="551" 
d="M10 -1l213 535l19 69l79 6l220 -609h-117l-30 151h-247l-36 -152h-101zM276 507l-101 -286h196zM285 820q37 0 61.5 -23.5t24.5 -59.5t-24.5 -60t-61.5 -24t-61.5 24t-24.5 60t24.5 59.5t61.5 23.5zM254 701.5q12 -13.5 30.5 -13.5t30.5 13.5t12 34.5t-11.5 34t-30.5 13
t-31 -13t-12 -34t12 -34.5z" />
    <glyph glyph-name="AE" unicode="&#xc6;" horiz-adv-x="728" 
d="M428 344h96l95 10l-8 -75h-183v-82l9 -127h132l109 12l-10 -88l-109 6h-117l-112 -6l11 157h-188l-63 -152h-100l306 535l32 71h341l-9 -82l-112 12h-111l-9 -128v-63zM193 221h151v286z" />
    <glyph glyph-name="Ccedilla" unicode="&#xc7;" horiz-adv-x="593" 
d="M121 79.5q-66 80.5 -66 221t89 230t237 89.5q76 0 157 -30l-32 -105l-122 66q-128 0 -178 -54t-50 -181.5t52.5 -196t136.5 -68.5t166 68l32 -87q-90 -47 -197 -47h-4l-22 -44q82 -9 82 -73q0 -44 -30 -68t-81 -24t-87 14l31 56q29 -11 60 -11q48 0 48 33q0 26 -16 34.5
t-62 8.5l40 76q-118 12 -184 92.5z" />
    <glyph glyph-name="Egrave" unicode="&#xc8;" horiz-adv-x="478" 
d="M178 407v-63h96l95 10l-8 -75h-183v-82l9 -127h132l109 12l-10 -88l-109 6h-117l-112 -6l14 204v210l-14 197h339l-9 -82l-112 12h-111zM317 685l-23 -32l-174 103l59 64z" />
    <glyph glyph-name="Eacute" unicode="&#xc9;" horiz-adv-x="478" 
d="M178 407v-63h96l95 10l-8 -75h-183v-82l9 -127h132l109 12l-10 -88l-109 6h-117l-112 -6l14 204v210l-14 197h339l-9 -82l-112 12h-111zM203 653l-23 32l139 135l59 -65z" />
    <glyph glyph-name="Ecircumflex" unicode="&#xca;" horiz-adv-x="478" 
d="M178 407v-63h96l95 10l-8 -75h-183v-82l9 -127h132l109 12l-10 -88l-109 6h-117l-112 -6l14 204v210l-14 197h339l-9 -82l-112 12h-111zM134 653l-23 32l138 130l138 -130l-23 -32l-115 76z" />
    <glyph glyph-name="Edieresis" unicode="&#xcb;" horiz-adv-x="478" 
d="M178 407v-63h96l95 10l-8 -75h-183v-82l9 -127h132l109 12l-10 -88l-109 6h-117l-112 -6l14 204v210l-14 197h339l-9 -82l-112 12h-111zM278 737q27 40 58 61q36 -25 61 -61q-23 -35 -61 -61q-33 22 -58 61zM97 737q26 38 61 61q31 -23 58 -61q-27 -39 -58 -61
q-37 24 -61 61z" />
    <glyph glyph-name="Igrave" unicode="&#xcc;" horiz-adv-x="282" 
d="M85 0l14 198v210l-14 197h112l-14 -198v-210l14 -197h-112zM210 685l-23 -32l-174 103l59 64z" />
    <glyph glyph-name="Iacute" unicode="&#xcd;" horiz-adv-x="282" 
d="M85 0l14 198v210l-14 197h112l-14 -198v-210l14 -197h-112zM95 653l-23 32l139 135l59 -65z" />
    <glyph glyph-name="Icircumflex" unicode="&#xce;" horiz-adv-x="282" 
d="M85 0l14 198v210l-14 197h112l-14 -198v-210l14 -197h-112zM26 653l-23 32l138 130l138 -130l-23 -32l-115 76z" />
    <glyph glyph-name="Idieresis" unicode="&#xcf;" horiz-adv-x="282" 
d="M85 0l14 198v210l-14 197h112l-14 -198v-210l14 -197h-112zM172 737q27 40 58 61q36 -25 61 -61q-23 -35 -61 -61q-33 22 -58 61zM-9 737q26 38 61 61q31 -23 58 -61q-27 -39 -58 -61q-37 24 -61 61z" />
    <glyph glyph-name="Eth" unicode="&#xd0;" horiz-adv-x="650" 
d="M36 277l10 65h52v125l-18 132q105 21 199 21q161 0 238.5 -73.5t77.5 -226.5t-95.5 -244t-256.5 -91q-79 0 -159 15l14 198v79h-62zM191 64q40 -13 92 -13q83 0 158 35q24 34 38.5 95t14.5 126q0 129 -52.5 188t-167.5 59q-40 0 -82 -8l-10 -139v-65h56l95 10l-8 -75
h-143v-80z" />
    <glyph glyph-name="Ntilde" unicode="&#xd1;" horiz-adv-x="656" 
d="M500 -3l-28 65l-306 384v-249l14 -197h-100l14 198v210l-14 195l94 4l28 -67l288 -362v230l-14 197h100l-14 -198v-186l14 -221zM452 793l22 -17q-41 -77 -70 -102q-23 0 -43 8.5t-97 51.5l-60 -55l-22 17q44 78 70 102q22 0 44 -9.5t96 -50.5z" />
    <glyph glyph-name="Ograve" unicode="&#xd2;" horiz-adv-x="688" 
d="M129 67.5q-74 82.5 -74 229.5t81 235t215 88t208 -82t74 -229t-81.5 -235.5t-215 -88.5t-207.5 82.5zM156 297q0 -117 53 -181.5t149 -64.5q57 0 111 23q26 26 44.5 93.5t18.5 138.5q0 121 -52.5 184.5t-152.5 63.5q-57 0 -108 -23q-26 -25 -44.5 -94t-18.5 -140z
M422 685l-23 -32l-174 103l59 64z" />
    <glyph glyph-name="Oacute" unicode="&#xd3;" horiz-adv-x="688" 
d="M129 67.5q-74 82.5 -74 229.5t81 235t215 88t208 -82t74 -229t-81.5 -235.5t-215 -88.5t-207.5 82.5zM156 297q0 -117 53 -181.5t149 -64.5q57 0 111 23q26 26 44.5 93.5t18.5 138.5q0 121 -52.5 184.5t-152.5 63.5q-57 0 -108 -23q-26 -25 -44.5 -94t-18.5 -140z
M318 653l-23 32l139 135l59 -65z" />
    <glyph glyph-name="Ocircumflex" unicode="&#xd4;" horiz-adv-x="688" 
d="M129 67.5q-74 82.5 -74 229.5t81 235t215 88t208 -82t74 -229t-81.5 -235.5t-215 -88.5t-207.5 82.5zM156 297q0 -117 53 -181.5t149 -64.5q57 0 111 23q26 26 44.5 93.5t18.5 138.5q0 121 -52.5 184.5t-152.5 63.5q-57 0 -108 -23q-26 -25 -44.5 -94t-18.5 -140z
M229 653l-23 32l138 130l138 -130l-23 -32l-115 76z" />
    <glyph glyph-name="Otilde" unicode="&#xd5;" horiz-adv-x="688" 
d="M129 67.5q-74 82.5 -74 229.5t81 235t215 88t208 -82t74 -229t-81.5 -235.5t-215 -88.5t-207.5 82.5zM156 297q0 -117 53 -181.5t149 -64.5q57 0 111 23q26 26 44.5 93.5t18.5 138.5q0 121 -52.5 184.5t-152.5 63.5q-57 0 -108 -23q-26 -25 -44.5 -94t-18.5 -140z
M478 793l22 -17q-41 -77 -70 -102q-23 0 -43 8.5t-97 51.5l-60 -55l-22 17q44 78 70 102q22 0 44 -9.5t96 -50.5z" />
    <glyph glyph-name="Odieresis" unicode="&#xd6;" horiz-adv-x="688" 
d="M129 67.5q-74 82.5 -74 229.5t81 235t215 88t208 -82t74 -229t-81.5 -235.5t-215 -88.5t-207.5 82.5zM156 297q0 -117 53 -181.5t149 -64.5q57 0 111 23q26 26 44.5 93.5t18.5 138.5q0 121 -52.5 184.5t-152.5 63.5q-57 0 -108 -23q-26 -25 -44.5 -94t-18.5 -140z
M194 737q26 38 61 61q31 -23 58 -61q-27 -39 -58 -61q-37 24 -61 61zM375 737q27 40 58 61q36 -25 61 -61q-23 -35 -61 -61q-33 22 -58 61z" />
    <glyph glyph-name="multiply" unicode="&#xd7;" 
d="M130 53l-49 49l128 128l-128 129l49 49l128 -129l128 129l49 -49l-128 -129l128 -128l-49 -49l-128 128z" />
    <glyph glyph-name="Oslash" unicode="&#xd8;" horiz-adv-x="688" 
d="M156 297q0 -179 117 -230l90 484q-18 3 -36 3q-59 0 -108 -23q-26 -25 -44.5 -94t-18.5 -140zM532 306q0 184 -118 232l-90 -485q8 -2 48.5 -2t96.5 23q26 26 44.5 93.5t18.5 138.5zM55 293q0 151 81 239t218 88q16 0 21 -1l16 84l52 -9l-15 -82q98 -22 151.5 -100.5
t53.5 -200.5q0 -149 -81.5 -237.5t-218.5 -88.5q-17 0 -22 1l-15 -84l-52 9l15 82q-97 22 -150.5 100.5t-53.5 199.5z" />
    <glyph glyph-name="Ugrave" unicode="&#xd9;" horiz-adv-x="631" 
d="M84 263v145l-14 197h121l-13 -198v-107q0 -129 32.5 -184.5t110 -55.5t113 49t35.5 159v139l-13 198h105l-14 -197v-133q0 -290 -243 -290q-220 0 -220 278zM394 685l-23 -32l-174 103l59 64z" />
    <glyph glyph-name="Uacute" unicode="&#xda;" horiz-adv-x="631" 
d="M84 263v145l-14 197h121l-13 -198v-107q0 -129 32.5 -184.5t110 -55.5t113 49t35.5 159v139l-13 198h105l-14 -197v-133q0 -290 -243 -290q-220 0 -220 278zM289 653l-23 32l139 135l59 -65z" />
    <glyph glyph-name="Ucircumflex" unicode="&#xdb;" horiz-adv-x="631" 
d="M84 263v145l-14 197h121l-13 -198v-107q0 -129 32.5 -184.5t110 -55.5t113 49t35.5 159v139l-13 198h105l-14 -197v-133q0 -290 -243 -290q-220 0 -220 278zM200 653l-23 32l138 130l138 -130l-23 -32l-115 76z" />
    <glyph glyph-name="Udieresis" unicode="&#xdc;" horiz-adv-x="631" 
d="M84 263v145l-14 197h121l-13 -198v-107q0 -129 32.5 -184.5t110 -55.5t113 49t35.5 159v139l-13 198h105l-14 -197v-133q0 -290 -243 -290q-220 0 -220 278zM346 737q27 40 58 61q36 -25 61 -61q-23 -35 -61 -61q-33 22 -58 61zM165 737q26 38 61 61q31 -23 58 -61
q-27 -39 -58 -61q-37 24 -61 61z" />
    <glyph glyph-name="Yacute" unicode="&#xdd;" horiz-adv-x="495" 
d="M203 0l14 198v44l-202 361l132 9l24 -98l91 -184l86 175l24 100h118l-189 -343v-65l14 -197h-112zM221 653l-23 32l139 135l59 -65z" />
    <glyph glyph-name="Thorn" unicode="&#xde;" horiz-adv-x="511" 
d="M85 0l14 198v210l-14 197h112l-7 -96q50 5 77 5q209 0 209 -182q0 -74 -41.5 -119t-118.5 -56l-98 5l-3 39q87 0 125 28t38 93q0 132 -132 132q-30 0 -60 -6l-3 -41v-210l14 -197h-112z" />
    <glyph glyph-name="germandbls" unicode="&#xdf;" horiz-adv-x="554" 
d="M65 0l14 198v218q0 107 47 169t121.5 62t110.5 -27.5t36 -70.5q0 -31 -8.5 -48t-12.5 -25.5t-15 -21.5t-14 -18q-11 -13 -33 -35q0 -54 70 -100q29 -19 58 -39.5t49.5 -54.5t20.5 -78q0 -61 -49 -102.5t-114.5 -41.5t-121.5 24l27 87q64 -50 107 -50t73 23q2 6 2 31.5
t-19.5 51t-47.5 43.5t-56 38t-47.5 54t-19.5 73.5t35.5 95.5t35.5 78q0 53 -74 53q-43 0 -60.5 -34t-17.5 -120v-433h-97z" />
    <glyph glyph-name="agrave" unicode="&#xe0;" horiz-adv-x="454" 
d="M74.5 19.5q-34.5 34.5 -34.5 94.5t49 89t206 58q0 76 -17 105t-61 29q-24 0 -38 -2l-84 -74l-45 75q77 61 172 61q157 0 157 -158v-185l18 -113l-93 -14l-4 50q-62 -50 -126.5 -50t-99 34.5zM125 118q0 -33 20.5 -52t64 -19t85.5 31v126q-96 -14 -163 -43q-7 -27 -7 -43z
M292 534l-23 -32l-174 103l59 64z" />
    <glyph glyph-name="aacute" unicode="&#xe1;" horiz-adv-x="454" 
d="M74.5 19.5q-34.5 34.5 -34.5 94.5t49 89t206 58q0 76 -17 105t-61 29q-24 0 -38 -2l-84 -74l-45 75q77 61 172 61q157 0 157 -158v-185l18 -113l-93 -14l-4 50q-62 -50 -126.5 -50t-99 34.5zM125 118q0 -33 20.5 -52t64 -19t85.5 31v126q-96 -14 -163 -43q-7 -27 -7 -43z
M158 502l-23 32l139 135l59 -65z" />
    <glyph glyph-name="acircumflex" unicode="&#xe2;" horiz-adv-x="454" 
d="M74.5 19.5q-34.5 34.5 -34.5 94.5t49 89t206 58q0 76 -17 105t-61 29q-24 0 -38 -2l-84 -74l-45 75q77 61 172 61q157 0 157 -158v-185l18 -113l-93 -14l-4 50q-62 -50 -126.5 -50t-99 34.5zM125 118q0 -33 20.5 -52t64 -19t85.5 31v126q-96 -14 -163 -43q-7 -27 -7 -43z
M95 502l-23 32l138 130l138 -130l-23 -32l-115 76z" />
    <glyph glyph-name="atilde" unicode="&#xe3;" horiz-adv-x="454" 
d="M74.5 19.5q-34.5 34.5 -34.5 94.5t49 89t206 58q0 76 -17 105t-61 29q-24 0 -38 -2l-84 -74l-45 75q77 61 172 61q157 0 157 -158v-185l18 -113l-93 -14l-4 50q-62 -50 -126.5 -50t-99 34.5zM125 118q0 -33 20.5 -52t64 -19t85.5 31v126q-96 -14 -163 -43q-7 -27 -7 -43z
M341 642l22 -17q-41 -77 -70 -102q-23 0 -43 8.5t-97 51.5l-60 -55l-22 17q44 78 70 102q22 0 44 -9.5t96 -50.5z" />
    <glyph glyph-name="adieresis" unicode="&#xe4;" horiz-adv-x="454" 
d="M74.5 19.5q-34.5 34.5 -34.5 94.5t49 89t206 58q0 76 -17 105t-61 29q-24 0 -38 -2l-84 -74l-45 75q77 61 172 61q157 0 157 -158v-185l18 -113l-93 -14l-4 50q-62 -50 -126.5 -50t-99 34.5zM125 118q0 -33 20.5 -52t64 -19t85.5 31v126q-96 -14 -163 -43q-7 -27 -7 -43z
M67 586q26 38 61 61q31 -23 58 -61q-27 -39 -58 -61q-37 24 -61 61zM248 586q27 40 58 61q36 -25 61 -61q-23 -35 -61 -61q-33 22 -58 61z" />
    <glyph glyph-name="aring" unicode="&#xe5;" horiz-adv-x="454" 
d="M74.5 19.5q-34.5 34.5 -34.5 94.5t49 89t206 58q0 76 -17 105t-61 29q-24 0 -38 -2l-84 -74l-45 75q77 61 172 61q157 0 157 -158v-185l18 -113l-93 -14l-4 50q-62 -50 -126.5 -50t-99 34.5zM125 118q0 -33 20.5 -52t64 -19t85.5 31v126q-96 -14 -163 -43q-7 -27 -7 -43z
M217 669q37 0 61.5 -23.5t24.5 -59.5t-24.5 -60t-61.5 -24t-61.5 24t-24.5 60t24.5 59.5t61.5 23.5zM186 550.5q12 -13.5 30.5 -13.5t30.5 13.5t12 34.5t-11.5 34t-30.5 13t-31 -13t-12 -34t12 -34.5z" />
    <glyph glyph-name="ae" unicode="&#xe6;" horiz-adv-x="707" 
d="M74.5 19.5q-34.5 34.5 -34.5 94.5t49 89t206 58q0 76 -17 105t-61 29q-24 0 -38 -2l-84 -74l-45 75q77 61 171 61t134 -73q51 72 142 72q76 0 118 -41t42 -115q0 -27 -5 -65l-273 -9q0 -85 30.5 -131.5t85.5 -46.5q71 0 131 51l27 -74q-68 -38 -152 -38q-110 0 -164 77
q-90 -77 -171 -77q-57 0 -91.5 34.5zM125 118q0 -33 20.5 -52t56.5 -19q63 0 115 49q-22 48 -22 108q-96 -14 -163 -43q-7 -27 -7 -43zM379 276l187 8q-1 61 -20 85t-62 24t-67 -9q-35 -33 -38 -108z" />
    <glyph glyph-name="ccedilla" unicode="&#xe7;" horiz-adv-x="428" 
d="M96.5 56.5q-46.5 59.5 -46.5 160.5t62 169t163 68q71 0 117 -23l-27 -86l-124 49q-53 -6 -76 -47t-23 -125.5t28.5 -130t83 -45.5t117.5 51l27 -74q-67 -35 -139 -38l-22 -44q82 -9 82 -73q0 -44 -30 -68t-81 -24t-87 14l31 56q29 -11 60 -11q48 0 48 33q0 26 -16 34.5
t-62 8.5l40 76q-79 10 -125.5 69.5z" />
    <glyph glyph-name="egrave" unicode="&#xe8;" horiz-adv-x="467" 
d="M107 45q-57 60 -57 165.5t58 174.5t141.5 69t125.5 -41t42 -115q0 -27 -5 -65l-270 -9q0 -85 29.5 -131.5t83.5 -46.5q71 0 131 51l27 -74q-68 -38 -158.5 -38t-147.5 60zM144 276l182 8q-1 61 -20 85t-62 24t-67 -9q-25 -27 -33 -108zM332 534l-23 -32l-174 103l59 64z
" />
    <glyph glyph-name="eacute" unicode="&#xe9;" horiz-adv-x="467" 
d="M107 45q-57 60 -57 165.5t58 174.5t141.5 69t125.5 -41t42 -115q0 -27 -5 -65l-270 -9q0 -85 29.5 -131.5t83.5 -46.5q71 0 131 51l27 -74q-68 -38 -158.5 -38t-147.5 60zM144 276l182 8q-1 61 -20 85t-62 24t-67 -9q-25 -27 -33 -108zM207 502l-23 32l139 135l59 -65z
" />
    <glyph glyph-name="ecircumflex" unicode="&#xea;" horiz-adv-x="467" 
d="M107 45q-57 60 -57 165.5t58 174.5t141.5 69t125.5 -41t42 -115q0 -27 -5 -65l-270 -9q0 -85 29.5 -131.5t83.5 -46.5q71 0 131 51l27 -74q-68 -38 -158.5 -38t-147.5 60zM144 276l182 8q-1 61 -20 85t-62 24t-67 -9q-25 -27 -33 -108zM128 502l-23 32l138 130l138 -130
l-23 -32l-115 76z" />
    <glyph glyph-name="edieresis" unicode="&#xeb;" horiz-adv-x="467" 
d="M107 45q-57 60 -57 165.5t58 174.5t141.5 69t125.5 -41t42 -115q0 -27 -5 -65l-270 -9q0 -85 29.5 -131.5t83.5 -46.5q71 0 131 51l27 -74q-68 -38 -158.5 -38t-147.5 60zM144 276l182 8q-1 61 -20 85t-62 24t-67 -9q-25 -27 -33 -108zM284 586q27 40 58 61
q36 -25 61 -61q-23 -35 -61 -61q-33 22 -58 61zM103 586q26 38 61 61q31 -23 58 -61q-27 -39 -58 -61q-37 24 -61 61z" />
    <glyph glyph-name="igrave" unicode="&#xec;" horiz-adv-x="229" 
d="M58 0l14 198v140l-15 103l103 10l-11 -196v-58l11 -197h-102zM182 534l-23 -32l-174 103l59 64z" />
    <glyph glyph-name="iacute" unicode="&#xed;" horiz-adv-x="229" 
d="M58 0l14 198v140l-15 103l103 10l-11 -196v-58l11 -197h-102zM51 502l-23 32l139 135l59 -65z" />
    <glyph glyph-name="icircumflex" unicode="&#xee;" horiz-adv-x="229" 
d="M58 0l14 198v140l-15 103l103 10l-11 -196v-58l11 -197h-102zM-4 502l-23 32l138 130l138 -130l-23 -32l-115 76z" />
    <glyph glyph-name="idieresis" unicode="&#xef;" horiz-adv-x="229" 
d="M58 0l14 198v140l-15 103l103 10l-11 -196v-58l11 -197h-102zM142 586q27 40 58 61q36 -25 61 -61q-23 -35 -61 -61q-33 22 -58 61zM-39 586q26 38 61 61q31 -23 58 -61q-27 -39 -58 -61q-37 24 -61 61z" />
    <glyph glyph-name="eth" unicode="&#xf0;" horiz-adv-x="500" 
d="M261 46q30 0 64 10q33 47 33 148.5t-29.5 145t-91.5 43.5q-23 0 -62 -10q-33 -46 -33 -148t28.5 -145.5t90.5 -43.5zM414.5 444q35.5 -92 35.5 -208t-54.5 -183.5t-148.5 -67.5t-145.5 59t-51.5 165.5t51.5 175.5t123 69t128.5 -45q-22 56 -43.5 87.5t-51.5 54.5l-91 -56
l-21 38l68 50q-36 20 -99 40l13 43q76 -13 138 -46l94 57l21 -38l-68 -50q66 -53 101.5 -145z" />
    <glyph glyph-name="ntilde" unicode="&#xf1;" horiz-adv-x="505" 
d="M66 0l14 198v141l-15 103l97 10v-51q81 53 163 53q51 0 78 -35.5t27 -102.5v-316l-98 -5l14 215v107q0 37 -12 52.5t-40 15.5q-61 0 -132 -37v-348h-96zM376 642l22 -17q-41 -77 -70 -102q-23 0 -43 8.5t-97 51.5l-60 -55l-22 17q44 78 70 102q22 0 44 -9.5t96 -50.5z
" />
    <glyph glyph-name="ograve" unicode="&#xf2;" horiz-adv-x="500" 
d="M101.5 44q-51.5 59 -51.5 168.5t55 175.5t148.5 66t145 -58.5t51.5 -168t-55 -176t-148.5 -66.5t-145 59zM261 46q30 0 64 10q33 47 33 148.5t-29.5 145t-91.5 43.5q-23 0 -62 -10q-33 -46 -33 -148t28.5 -145.5t90.5 -43.5zM328 534l-23 -32l-174 103l59 64z" />
    <glyph glyph-name="oacute" unicode="&#xf3;" horiz-adv-x="500" 
d="M101.5 44q-51.5 59 -51.5 168.5t55 175.5t148.5 66t145 -58.5t51.5 -168t-55 -176t-148.5 -66.5t-145 59zM261 46q30 0 64 10q33 47 33 148.5t-29.5 145t-91.5 43.5q-23 0 -62 -10q-33 -46 -33 -148t28.5 -145.5t90.5 -43.5zM204 502l-23 32l139 135l59 -65z" />
    <glyph glyph-name="ocircumflex" unicode="&#xf4;" horiz-adv-x="500" 
d="M101.5 44q-51.5 59 -51.5 168.5t55 175.5t148.5 66t145 -58.5t51.5 -168t-55 -176t-148.5 -66.5t-145 59zM261 46q30 0 64 10q33 47 33 148.5t-29.5 145t-91.5 43.5q-23 0 -62 -10q-33 -46 -33 -148t28.5 -145.5t90.5 -43.5zM135 502l-23 32l138 130l138 -130l-23 -32
l-115 76z" />
    <glyph glyph-name="otilde" unicode="&#xf5;" horiz-adv-x="500" 
d="M101.5 44q-51.5 59 -51.5 168.5t55 175.5t148.5 66t145 -58.5t51.5 -168t-55 -176t-148.5 -66.5t-145 59zM261 46q30 0 64 10q33 47 33 148.5t-29.5 145t-91.5 43.5q-23 0 -62 -10q-33 -46 -33 -148t28.5 -145.5t90.5 -43.5zM381 642l22 -17q-41 -77 -70 -102
q-23 0 -43 8.5t-97 51.5l-60 -55l-22 17q44 78 70 102q22 0 44 -9.5t96 -50.5z" />
    <glyph glyph-name="odieresis" unicode="&#xf6;" horiz-adv-x="500" 
d="M101.5 44q-51.5 59 -51.5 168.5t55 175.5t148.5 66t145 -58.5t51.5 -168t-55 -176t-148.5 -66.5t-145 59zM261 46q30 0 64 10q33 47 33 148.5t-29.5 145t-91.5 43.5q-23 0 -62 -10q-33 -46 -33 -148t28.5 -145.5t90.5 -43.5zM100 586q26 38 61 61q31 -23 58 -61
q-27 -39 -58 -61q-37 24 -61 61zM281 586q27 40 58 61q36 -25 61 -61q-23 -35 -61 -61q-33 22 -58 61z" />
    <glyph glyph-name="divide" unicode="&#xf7;" 
d="M79 196l4 69h354l-4 -69h-354zM201 81q24 35 59 59q33 -22 60 -59q-23 -35 -60 -60q-36 25 -59 60zM201 383q24 35 59 59q33 -22 60 -59q-23 -35 -60 -60q-36 25 -59 60z" />
    <glyph glyph-name="oslash" unicode="&#xf8;" horiz-adv-x="500" 
d="M245 47q4 -1 24 -1t56 10q33 47 33 163.5t-53 154.5zM255 392l-18 1q-22 0 -62 -10q-33 -46 -33 -164t52 -155zM252 454l14 -1l16 84l52 -9l-16 -83q64 -19 98 -74t34 -141q0 -112 -55 -178.5t-148 -66.5h-14l-15 -83l-52 9l15 83q-63 18 -97 74t-34 142q0 112 55 178
t147 66z" />
    <glyph glyph-name="ugrave" unicode="&#xf9;" horiz-adv-x="502" 
d="M75 123v314l98 5l-14 -215v-105q0 -37 12 -52.5t40 -15.5q60 0 132 37l-12 346l96 5v-341l15 -103l-99 -10v50q-81 -53 -163 -53q-51 0 -78 35.5t-27 102.5zM320 534l-23 -32l-174 103l59 64z" />
    <glyph glyph-name="uacute" unicode="&#xfa;" horiz-adv-x="502" 
d="M75 123v314l98 5l-14 -215v-105q0 -37 12 -52.5t40 -15.5q60 0 132 37l-12 346l96 5v-341l15 -103l-99 -10v50q-81 -53 -163 -53q-51 0 -78 35.5t-27 102.5zM196 502l-23 32l139 135l59 -65z" />
    <glyph glyph-name="ucircumflex" unicode="&#xfb;" horiz-adv-x="502" 
d="M75 123v314l98 5l-14 -215v-105q0 -37 12 -52.5t40 -15.5q60 0 132 37l-12 346l96 5v-341l15 -103l-99 -10v50q-81 -53 -163 -53q-51 0 -78 35.5t-27 102.5zM136 502l-23 32l138 130l138 -130l-23 -32l-115 76z" />
    <glyph glyph-name="udieresis" unicode="&#xfc;" horiz-adv-x="502" 
d="M75 123v314l98 5l-14 -215v-105q0 -37 12 -52.5t40 -15.5q60 0 132 37l-12 346l96 5v-341l15 -103l-99 -10v50q-81 -53 -163 -53q-51 0 -78 35.5t-27 102.5zM282 586q27 40 58 61q36 -25 61 -61q-23 -35 -61 -61q-33 22 -58 61zM101 586q26 38 61 61q31 -23 58 -61
q-27 -39 -58 -61q-37 24 -61 61z" />
    <glyph glyph-name="yacute" unicode="&#xfd;" horiz-adv-x="426" 
d="M15 -111l97 9q39 54 67 112l-169 429l107 7l12 -94l90 -248q45 116 87 236l11 99h104l-149 -380q-53 -136 -104.5 -194t-124.5 -65zM186 502l-23 32l139 135l59 -65z" />
    <glyph glyph-name="thorn" unicode="&#xfe;" horiz-adv-x="492" 
d="M78 -21v588l-13 103l111 10l-14 -198v-75q63 47 130.5 47t108.5 -56t41 -152q0 -118 -62.5 -189.5t-165.5 -71.5q-31 0 -52 4l10 -198l-105 -10zM162 57q22 -11 66 -11t85 10q37 45 37 159q0 170 -89 170q-48 0 -99 -24v-304z" />
    <glyph glyph-name="ydieresis" unicode="&#xff;" horiz-adv-x="426" 
d="M15 -111l97 9q39 54 67 112l-169 429l107 7l12 -94l90 -248q45 116 87 236l11 99h104l-149 -380q-53 -136 -104.5 -194t-124.5 -65zM250 586q27 40 58 61q36 -25 61 -61q-23 -35 -61 -61q-33 22 -58 61zM69 586q26 38 61 61q31 -23 58 -61q-27 -39 -58 -61q-37 24 -61 61
z" />
    <glyph glyph-name="dotlessi" unicode="&#x131;" horiz-adv-x="229" 
d="M58 0l14 198v140l-15 103l103 10l-11 -196v-58l11 -197h-102z" />
    <glyph glyph-name="Lslash" unicode="&#x141;" horiz-adv-x="400" 
d="M80 -6l14 204v107l-54 -29l-28 51l82 45v36l-14 197h112l-13 -187l76 42l28 -51l-105 -58v-154l9 -127h107l109 12l-10 -88l-109 6h-95z" />
    <glyph glyph-name="lslash" unicode="&#x142;" horiz-adv-x="242" 
d="M66 0l14 198v111l-50 -27l-28 51l78 42v192l-15 103l108 10l-11 -196v-64l63 34l28 -51l-91 -50v-156l11 -197h-107z" />
    <glyph glyph-name="OE" unicode="&#x152;" horiz-adv-x="895" 
d="M497 -6l3 43q-76 -52 -167 -52q-130 0 -204 82.5t-74 228.5t81.5 235t217.5 89q79 0 145 -42l-2 27h339l-9 -82l-112 12h-111l-9 -128v-63h96l95 10l-8 -75h-183v-82l9 -127h132l109 12l-10 -88l-109 6h-117zM156 297q0 -117 53 -181.5t149 -64.5q29 0 71.5 11t73.5 27
l8 109v210l-7 103q-86 42 -157.5 42t-127.5 -22q-26 -25 -44.5 -94t-18.5 -140z" />
    <glyph glyph-name="oe" unicode="&#x153;" horiz-adv-x="775" 
d="M101.5 44q-51.5 59 -51.5 168.5t55 175.5t147 66q107 0 159 -89q53 89 154 89q76 0 118 -41t42 -115q0 -8 -5 -65l-270 -9q0 -85 29.5 -131.5t83.5 -46.5q71 0 131 51l27 -74q-68 -38 -152 -38q-113 0 -168 88q-53 -88 -150.5 -88t-149 59zM261 46q30 0 64 10
q33 49 33 151.5t-30 144t-91 41.5q-23 0 -62 -10q-33 -46 -33 -148t28.5 -145.5t90.5 -43.5zM449 276l185 8q-1 61 -20 85t-64.5 24t-67.5 -9q-25 -25 -33 -108z" />
    <glyph glyph-name="Scaron" unicode="&#x160;" horiz-adv-x="502" 
d="M55 17l34 101q58 -38 94.5 -52t75.5 -14q66 0 104 40q3 15 3 31q0 47 -31.5 79t-76 51t-89.5 40t-76.5 60t-31.5 97q0 75 62.5 121t164.5 46q71 0 133 -28l-29 -94q-84 56 -138.5 56t-109.5 -34q0 -59 31 -96.5t76 -57.5t89.5 -40t75.5 -57.5t31 -96.5q0 -80 -64.5 -132
t-155.5 -52t-172 32zM113 785l23 32l115 -77l115 77l23 -32l-138 -130z" />
    <glyph glyph-name="scaron" unicode="&#x161;" horiz-adv-x="390" 
d="M40 9l27 87q71 -50 119 -50t81 23q2 6 2 30.5t-18.5 42t-84.5 51.5t-89.5 62.5t-23.5 68.5q0 56 49.5 93t116 37t112.5 -20l-24 -78q-63 37 -105.5 37t-76.5 -20q0 -35 18.5 -56t81.5 -53.5t91.5 -63.5t28.5 -71q0 -61 -52.5 -102.5t-123 -41.5t-129.5 24zM69 634l23 32
l115 -77l115 77l23 -32l-138 -130z" />
    <glyph glyph-name="Ydieresis" unicode="&#x178;" horiz-adv-x="495" 
d="M203 0l14 198v44l-202 361l132 9l24 -98l91 -184l86 175l24 100h118l-189 -343v-65l14 -197h-112zM291 737q27 40 58 61q36 -25 61 -61q-23 -35 -61 -61q-33 22 -58 61zM110 737q26 38 61 61q31 -23 58 -61q-27 -39 -58 -61q-37 24 -61 61z" />
    <glyph glyph-name="Zcaron" unicode="&#x17d;" horiz-adv-x="496" 
d="M110 785l23 32l115 -77l115 77l23 -32l-138 -130zM31 -8l-11 46l329 498h-187l-122 -36l-12 105h352l74 9l11 -47l-327 -497h186l129 40l12 -110h-366z" />
    <glyph glyph-name="zcaron" unicode="&#x17e;" horiz-adv-x="411" 
d="M37 -6l-7 34l225 346h-93l-104 -23l-7 93l249 -10l70 11l7 -34l-225 -346h123l102 22l9 -92l-281 10zM71 634l23 32l115 -77l115 77l23 -32l-138 -130z" />
    <glyph glyph-name="florin" unicode="&#x192;" 
d="M116 245l-2 38l88 27q0 112 53.5 174.5t141.5 62.5q44 0 89 -14l-26 -74l-90 31q-49 -5 -69.5 -44.5t-20.5 -135.5h117l-3 -50l-116 -9l-9 -247q-4 -102 -56.5 -161t-138.5 -59q-42 0 -86 14l26 74l87 -31q47 7 67.5 40t22.5 107l9 257h-84z" />
    <glyph glyph-name="circumflex" unicode="&#x2c6;" horiz-adv-x="430" 
d="M93 502l-23 32l138 130l138 -130l-23 -32l-115 76z" />
    <glyph glyph-name="caron" unicode="&#x2c7;" horiz-adv-x="430" 
d="M77 634l23 32l115 -77l115 77l23 -32l-138 -130z" />
    <glyph glyph-name="breve" unicode="&#x2d8;" horiz-adv-x="430" 
d="M110 659q43 -79 104 -79t106 79l37 -22q-25 -62 -58.5 -89.5t-83.5 -27.5t-84 28t-58 89z" />
    <glyph glyph-name="dotaccent" unicode="&#x2d9;" horiz-adv-x="430" 
d="M62 603q31 43 67 67q39 -29 67 -67q-29 -42 -67 -67q-39 25 -67 67z" />
    <glyph glyph-name="ring" unicode="&#x2da;" horiz-adv-x="430" 
d="M215 669q37 0 61.5 -23.5t24.5 -59.5t-24.5 -60t-61.5 -24t-61.5 24t-24.5 60t24.5 59.5t61.5 23.5zM184 550.5q12 -13.5 30.5 -13.5t30.5 13.5t12 34.5t-11.5 34t-30.5 13t-31 -13t-12 -34t12 -34.5z" />
    <glyph glyph-name="ogonek" unicode="&#x2db;" horiz-adv-x="455" 
d="M222 0h102q-52 -13 -89 -48t-37 -71q0 -48 48 -48q27 0 55 17l25 -38q-39 -36 -88.5 -36t-79 26t-29.5 64.5t25 74.5t68 59z" />
    <glyph glyph-name="tilde" unicode="&#x2dc;" horiz-adv-x="430" 
d="M339 642l22 -17q-41 -77 -70 -102q-23 0 -43 8.5t-97 51.5l-60 -55l-22 17q44 78 70 102q22 0 44 -9.5t96 -50.5z" />
    <glyph glyph-name="hungarumlaut" unicode="&#x2dd;" horiz-adv-x="430" 
d="M229 502l-27 33l135 138l54 -51zM66 503l-27 32l134 139l54 -52z" />
    <glyph glyph-name="pi" unicode="&#x3c0;" horiz-adv-x="534" 
d="M35 378l5 76h345l109 12l-10 -88l-79 4v-270l18 -113l-93 -14l-11 110v289h-130l-7 -129v-58l11 -197h-102l14 198v184z" />
    <glyph glyph-name="endash" unicode="&#x2013;" horiz-adv-x="438" 
d="M40 207l4 69h354l-4 -69h-354z" />
    <glyph glyph-name="emdash" unicode="&#x2014;" horiz-adv-x="650" 
d="M20 207l4 69h606l-4 -69h-606z" />
    <glyph glyph-name="quoteleft" unicode="&#x2018;" horiz-adv-x="211" 
d="M181 428q-29 -41 -70 -70q-45 31 -71 70q23 99 98 208l34 -24q-30 -65 -42 -128q29 -22 51 -56z" />
    <glyph glyph-name="quoteright" unicode="&#x2019;" horiz-adv-x="211" 
d="M30 561q29 41 70 70q45 -31 71 -70q-23 -99 -98 -208l-34 24q30 65 42 128q-29 22 -51 56z" />
    <glyph glyph-name="quotesinglbase" unicode="&#x201a;" horiz-adv-x="226" 
d="M35 54q29 41 70 70q45 -31 71 -70q-23 -99 -98 -208l-34 24q30 65 42 128q-29 22 -51 56z" />
    <glyph glyph-name="quotedblleft" unicode="&#x201c;" horiz-adv-x="391" 
d="M181 428q-29 -41 -70 -70q-45 31 -71 70q23 99 98 208l34 -24q-30 -65 -42 -128q29 -22 51 -56zM361 428q-29 -41 -70 -70q-45 31 -71 70q23 99 98 208l34 -24q-30 -65 -42 -128q29 -22 51 -56z" />
    <glyph glyph-name="quotedblright" unicode="&#x201d;" horiz-adv-x="391" 
d="M210 561q29 41 70 70q45 -31 71 -70q-23 -99 -98 -208l-34 24q30 65 42 128q-29 22 -51 56zM30 561q29 41 70 70q45 -31 71 -70q-23 -99 -98 -208l-34 24q30 65 42 128q-29 22 -51 56z" />
    <glyph glyph-name="quotedblbase" unicode="&#x201e;" horiz-adv-x="406" 
d="M35 54q29 41 70 70q45 -31 71 -70q-23 -99 -98 -208l-34 24q30 65 42 128q-29 22 -51 56zM215 54q29 41 70 70q45 -31 71 -70q-23 -99 -98 -208l-34 24q30 65 42 128q-29 22 -51 56z" />
    <glyph glyph-name="dagger" unicode="&#x2020;" horiz-adv-x="426" 
d="M195 397h36l34 -397h-104zM237 407v36l162 29v-94zM189 443v-36l-162 -29v94zM230 451h-35l-28 162h93z" />
    <glyph glyph-name="daggerdbl" unicode="&#x2021;" horiz-adv-x="426" 
d="M230 451h-35l-34 162h104zM196 162h35l34 -162h-104zM256 307l-25 -91h-36l-26 91l26 90h36zM189 206v-36l-162 -29v94zM189 443v-36l-162 -29v94zM237 407v36l162 29v-94zM237 170v36l162 29v-94z" />
    <glyph glyph-name="bullet" unicode="&#x2022;" horiz-adv-x="336" 
d="M70 243q40 59 98 98q61 -42 98 -98q-39 -59 -98 -98q-58 37 -98 98z" />
    <glyph glyph-name="ellipsis" unicode="&#x2026;" horiz-adv-x="681" 
d="M40 54q29 41 70 70q43 -30 70 -70q-29 -43 -70 -70q-41 27 -70 70zM270 54q29 41 70 70q43 -30 70 -70q-29 -43 -70 -70q-41 27 -70 70zM501 54q29 41 70 70q43 -30 70 -70q-29 -43 -70 -70q-41 27 -70 70z" />
    <glyph glyph-name="perthousand" unicode="&#x2030;" horiz-adv-x="1189" 
d="M539 29.5q-37 44.5 -37 120.5t38 121t102 45t101.5 -44.5t37.5 -120.5t-38 -121t-102.5 -45t-101.5 44.5zM880 29.5q-37 44.5 -37 120.5t38 121t102 45t101.5 -44.5t37.5 -120.5t-38 -121t-102.5 -45t-101.5 44.5zM104 260.5q-37 44.5 -37 120.5t38 121t102 45
t101.5 -44.5t37.5 -120.5t-38 -121t-102.5 -45t-101.5 44.5zM309 -26l-60 24l290 560l60 -24zM137 379q0 -53 17.5 -82t49.5 -29q72 0 72 113.5t-68 113.5q-71 0 -71 -116zM913 148q0 -53 17.5 -82t49.5 -29q72 0 72 113.5t-68 113.5q-71 0 -71 -116zM572 148
q0 -53 17.5 -82t49.5 -29q72 0 72 113.5t-68 113.5q-71 0 -71 -116z" />
    <glyph glyph-name="guilsinglleft" unicode="&#x2039;" horiz-adv-x="293" 
d="M258 45l-35 -30l-193 191l3 29l190 188l35 -30l-129 -174z" />
    <glyph glyph-name="guilsinglright" unicode="&#x203a;" horiz-adv-x="293" 
d="M35 393l35 30l193 -191l-3 -29l-190 -188l-35 30l129 174z" />
    <glyph glyph-name="fraction" unicode="&#x2044;" horiz-adv-x="225" 
d="M7 -35l-67 20l278 656l67 -20z" />
    <glyph glyph-name="Euro" unicode="&#x20ac;" 
d="M25 301v48h55q21 92 91 145t171 53q64 0 131 -27l-26 -92l-101 58q-89 0 -130 -31t-52 -106h201v-48h-206q0 -50 1 -55h205v-47h-200q13 -71 51 -113.5t88 -42.5q75 0 131 90l47 -66q-82 -82 -184 -82q-86 0 -146.5 58t-76.5 156h-50v47h45q0 46 1 55h-46z" />
    <glyph glyph-name="trademark" unicode="&#x2122;" horiz-adv-x="768" 
d="M634 256l2 115l-7 130l-89 -204l-40 -2l-97 191l-5 -116l4 -114h-65l14 115l7 120l-4 111l60 2l10 -37l99 -194l85 204l6 26l77 3l-4 -116l7 -120l14 -114h-74zM126 256l7 115v116l-5 73h-35l-63 -4l3 48h205l63 7l-6 -55l-64 4h-37l-4 -74v-116l7 -114h-71z" />
    <glyph glyph-name="Omega" unicode="&#x2126;" horiz-adv-x="710" 
d="M398 0l-11 37q59 27 101.5 109t42.5 182t-46.5 163t-129.5 63t-129.5 -63t-46.5 -163t42.5 -182t101.5 -109l-11 -37h-264l-8 86l121 -16h41q-58 55 -91.5 131.5t-33.5 155.5q0 120 75.5 191.5t202.5 71.5t202.5 -71t75.5 -191q0 -77 -34 -154.5t-92 -133.5h42l121 16
l-8 -86h-264z" />
    <glyph glyph-name="partialdiff" unicode="&#x2202;" horiz-adv-x="468" 
d="M209 50q60 0 98.5 64.5t41.5 169.5q-61 35 -104 35q-58 0 -88 -44t-30 -113.5t12 -89.5q31 -22 70 -22zM65 657q156 -1 259.5 -108t103.5 -268q0 -134 -61 -215t-162 -81q-74 0 -119.5 53.5t-45.5 141t54.5 143.5t142.5 56q49 0 106 -23q-27 153 -162 223l-121 -4z" />
    <glyph glyph-name="Delta" unicode="&#x2206;" horiz-adv-x="530" 
d="M520 0h-510l212 618l82 3zM113 70h290l-147 453z" />
    <glyph glyph-name="product" unicode="&#x220f;" horiz-adv-x="624" 
d="M398 70v338l-12 164h-157l-11 -165v-335l14 -197h-112l14 198v335l-12 162l-77 -4l5 82h440l109 12l-10 -94l-96 5l-11 -164v-339l21 -190l-91 -13z" />
    <glyph glyph-name="summation" unicode="&#x2211;" horiz-adv-x="438" 
d="M70 -74l-38 55l214 304l-241 335h413l-6 -71h-270l195 -264l-207 -287h288v-72h-348z" />
    <glyph glyph-name="minus" unicode="&#x2212;" 
d="M79 196l4 69h354l-4 -69h-354z" />
    <glyph glyph-name="radical" unicode="&#x221a;" horiz-adv-x="560" 
d="M449 591l-187 -717h-92l-169 432h89l128 -325l175 675h185l7 -76l-83 11h-53z" />
    <glyph glyph-name="infinity" unicode="&#x221e;" horiz-adv-x="771" 
d="M626 300q-41 19 -77 19t-65.5 -23.5t-60.5 -78.5q29 -54 57 -77.5t68 -23.5t68.5 29.5t28.5 76.5t-19 78zM145 137q41 -19 77 -19t65 23t61 77q-33 57 -59.5 80t-66 23t-68 -29.5t-28.5 -76.5t19 -78zM221 395q51 0 90 -26.5t75 -85.5q36 58 75 84t89 26q70 0 115.5 -49
t45.5 -125.5t-44.5 -126.5t-113.5 -50q-100 0 -168 110q-66 -108 -164 -108q-71 0 -116 49t-45 126.5t44.5 126.5t116.5 49z" />
    <glyph glyph-name="integral" unicode="&#x222b;" horiz-adv-x="367" 
d="M132 279v80q0 107 36 173t127 124l32 -85q-68 -30 -107 -74q-5 -118 -5 -187v-141q0 -107 -36.5 -173t-126.5 -124l-32 85q66 29 107 74q5 118 5 248z" />
    <glyph glyph-name="approxequal" unicode="&#x2248;" horiz-adv-x="548" 
d="M446 207l32 -49q-53 -62 -124 -62q-35 0 -90.5 17.5t-72.5 17.5q-47 0 -89 -42l-32 49q56 62 124 62q37 0 89.5 -17.5t75.5 -17.5q45 0 87 42zM446 369l32 -49q-53 -62 -124 -62q-35 0 -90.5 17.5t-72.5 17.5q-47 0 -89 -42l-32 49q56 62 124 62q37 0 89.5 -17.5
t75.5 -17.5q45 0 87 42z" />
    <glyph glyph-name="notequal" unicode="&#x2260;" 
d="M81 291v69h172l19 101l44 -7l-18 -94h137v-69h-149l-23 -121h172v-69h-185l-22 -123l-44 7l21 116h-124v69h137l22 121h-159z" />
    <glyph glyph-name="lessequal" unicode="&#x2264;" 
d="M155 270l282 -118l-9 -65l-349 155v57l349 155l9 -65zM79 0l4 69h354l-4 -69h-354z" />
    <glyph glyph-name="greaterequal" unicode="&#x2265;" 
d="M79 152l282 118l-282 119l9 65l349 -155v-57l-349 -155zM79 0l4 69h354l-4 -69h-354z" />
    <glyph glyph-name="lozenge" unicode="&#x25ca;" horiz-adv-x="504" 
d="M474 275l-187 -346l-69 -3l-188 349l185 344l71 3zM241 26l136 249l-136 248l-130 -248z" />
    <glyph glyph-name="apple" unicode="&#xf8ff;" horiz-adv-x="816" 
d="M526 295q4 -36 4 -45q61 -18 98 -22t58 -23.5t28 -46t14.5 -61.5t7.5 -91q0 -7 -7 -7h-26q-6 0 -6 6.5t7 6.5h19q0 47 -18 125l-5 22q-4 20 -22 36t-54 19.5t-70.5 15t-35.5 13.5q-1 6 -2.5 26t-2.5 27q-27 0 -53 13q-3 1 -3 7t7 6q1 0 17.5 -6.5t38.5 -6.5t27.5 6
t14 60.5t15.5 69.5q4 13 4 62t-4 69q-18 97 -130 97q-84 0 -131 -42.5t-47 -113t22.5 -115t61.5 -54.5q6 -2 6 -8t-3 -52.5t-4.5 -48.5t-3.5 -2q-26 0 -83 -22t-79 -25q-56 -8 -68 -54l-7 -29q-14 -60 -17 -95h142q7 0 7 -6.5t-7 -6.5h-149q-7 0 -7 7q3 42 18 102l8 30
q4 24 25.5 43.5t48.5 23t82.5 24t78.5 21.5q4 56 5 86q-43 14 -66.5 60.5t-23.5 122.5t50 122.5t141 46.5q121 0 145 -109q3 -18 3 -65t-5 -74q-13 -32 -18 -76.5t-14.5 -55.5t-31.5 -13zM507 563l5 -5l-18 -28l-13 11zM515 558l5 5l26 -22l-13 -11zM517 574h-7l-5 31h17z
M509 572l-3 -7l-31 7l6 15zM520 565l-2 7l28 15l6 -15z" />
    <glyph glyph-name="fi" unicode="&#xfb01;" horiz-adv-x="522" 
d="M13 371l-3 39l92 29v18q0 107 55.5 169t146 62t147.5 -46l-42 -80l-111 66q-64 -2 -89 -36t-25 -118v-35h173l103 12l-11 -196v-58l11 -197h-102l14 198v188l-188 -11v-178l11 -197h-107l14 198v173h-89z" />
    <glyph glyph-name="fl" unicode="&#xfb02;" horiz-adv-x="534" 
d="M358 0l14 198v416l-95 14q-53 -13 -73 -46t-20 -108v-35h124l-3 -53l-121 -9v-180l11 -197h-107l14 198v173h-89l-3 39l92 29v18q0 107 55.5 169t150.5 62q43 0 86 -15l71 7l-11 -196v-287l11 -197h-107z" />
    </font>
</defs>
</svg>
